<svg id="Layer_1" data-name="Layer 1" xmlns="http://www.w3.org/2000/svg" viewBox="0 0 258.6 101.85"><defs><style>.cls-1{fill:#e1003c;}</style></defs><path class="cls-1" d="M371.07,293.79c1.64,1.63,2.47,4.07,2.47,7.32v12.77h-5.22v-12.1a6.53,6.53,0,0,0-1.29-4.4,4.69,4.69,0,0,0-3.72-1.48,5.4,5.4,0,0,0-4.21,1.73,7,7,0,0,0-1.59,4.94v11.31h-5.22v-12.1a6.53,6.53,0,0,0-1.29-4.4,4.65,4.65,0,0,0-3.71-1.48,5.45,5.45,0,0,0-4.24,1.71,7.11,7.11,0,0,0-1.57,5v11.31h-5.21V291.6h5v2.83a8.18,8.18,0,0,1,3.13-2.29,10.66,10.66,0,0,1,4.18-.79,10,10,0,0,1,4.44.94,7.21,7.21,0,0,1,3.07,2.77,9.23,9.23,0,0,1,3.55-2.73,11.38,11.38,0,0,1,4.8-1,9,9,0,0,1,6.67,2.44" transform="translate(-291.64 -246.71)"/><path class="cls-1" d="M399.52,304.41H382a6.09,6.09,0,0,0,2.4,3.9,7.88,7.88,0,0,0,4.82,1.44,8.08,8.08,0,0,0,6.05-2.42l2.8,3.22a9.45,9.45,0,0,1-3.8,2.71,15,15,0,0,1-11.64-.54,10.49,10.49,0,0,1-4.32-4.07,11.46,11.46,0,0,1-1.52-5.91,11.63,11.63,0,0,1,1.48-5.86,10.45,10.45,0,0,1,4.11-4.07,11.92,11.92,0,0,1,5.92-1.46,11.72,11.72,0,0,1,5.83,1.44,10.19,10.19,0,0,1,4,4,12.22,12.22,0,0,1,1.44,6c0,.36,0,.87-.08,1.54M384.1,297A6.21,6.21,0,0,0,382,301h12.65a6.1,6.1,0,0,0-6.31-5.43A6.32,6.32,0,0,0,384.1,297" transform="translate(-291.64 -246.71)"/><path class="cls-1" d="M417.2,312.67A6.17,6.17,0,0,1,415,313.8a10.09,10.09,0,0,1-2.78.38,7.89,7.89,0,0,1-5.68-1.92,7.42,7.42,0,0,1-2-5.6V295.94h-3.67v-4.18h3.67v-5.09h5.22v5.09h6v4.18h-6v10.6a3.52,3.52,0,0,0,.79,2.48,3,3,0,0,0,2.3.86,4.59,4.59,0,0,0,2.92-.92Z" transform="translate(-291.64 -246.71)"/><path class="cls-1" d="M433.19,291.35v5a7,7,0,0,0-1.21-.12,6.3,6.3,0,0,0-4.76,1.77,7.09,7.09,0,0,0-1.71,5.11v10.81h-5.22V291.6h5v3.25q2.25-3.5,7.93-3.5" transform="translate(-291.64 -246.71)"/><path class="cls-1" d="M439.86,312.72a10.72,10.72,0,0,1-4.24-4.07,11.56,11.56,0,0,1-1.52-5.91,11.4,11.4,0,0,1,1.52-5.88,10.67,10.67,0,0,1,4.24-4.05,13.54,13.54,0,0,1,12.23,0,10.58,10.58,0,0,1,4.23,4.05,11.31,11.31,0,0,1,1.53,5.88,11.47,11.47,0,0,1-1.53,5.91,10.63,10.63,0,0,1-4.23,4.07,13.54,13.54,0,0,1-12.23,0m10.85-4.93a7.72,7.72,0,0,0,0-10.1,6.38,6.38,0,0,0-4.76-1.92,6.28,6.28,0,0,0-4.73,1.92,7.79,7.79,0,0,0,0,10.1,6.28,6.28,0,0,0,4.73,1.92,6.38,6.38,0,0,0,4.76-1.92" transform="translate(-291.64 -246.71)"/><path class="cls-1" d="M495.93,293.79c1.64,1.63,2.47,4.07,2.47,7.32v12.77h-5.22v-12.1a6.53,6.53,0,0,0-1.29-4.4,4.69,4.69,0,0,0-3.72-1.48,5.4,5.4,0,0,0-4.21,1.73,7,7,0,0,0-1.59,4.94v11.31h-5.22v-12.1a6.53,6.53,0,0,0-1.29-4.4,4.65,4.65,0,0,0-3.71-1.48,5.45,5.45,0,0,0-4.24,1.71,7.11,7.11,0,0,0-1.57,5v11.31h-5.21V291.6h5v2.83a8.18,8.18,0,0,1,3.13-2.29,10.66,10.66,0,0,1,4.18-.79,10,10,0,0,1,4.44.94,7.15,7.15,0,0,1,3.07,2.77,9.23,9.23,0,0,1,3.55-2.73,11.38,11.38,0,0,1,4.8-1,9,9,0,0,1,6.67,2.44" transform="translate(-291.64 -246.71)"/><path class="cls-1" d="M519.42,293.71q2.61,2.35,2.61,7.11v13.06h-4.92v-2.71a6,6,0,0,1-2.74,2.23,11.85,11.85,0,0,1-8.66-.08,6.74,6.74,0,0,1-2.9-2.38,6,6,0,0,1-1-3.44,5.88,5.88,0,0,1,2.23-4.82c1.49-1.21,3.83-1.82,7-1.82h5.75v-.33a4.56,4.56,0,0,0-1.39-3.59,6.05,6.05,0,0,0-4.16-1.25,12,12,0,0,0-3.69.58,9.07,9.07,0,0,0-3.07,1.63l-2-3.8a12.61,12.61,0,0,1,4.21-2,18.49,18.49,0,0,1,5.22-.71c3.28,0,5.79.78,7.53,2.36m-4.76,15.77a4.82,4.82,0,0,0,2.15-2.57v-2.58h-5.38c-3,0-4.51,1-4.51,3a2.65,2.65,0,0,0,1.13,2.25,5.13,5.13,0,0,0,3.13.84,6.68,6.68,0,0,0,3.48-.9" transform="translate(-291.64 -246.71)"/><path class="cls-1" d="M544.76,292.77a10.17,10.17,0,0,1,4,4,12.9,12.9,0,0,1,0,12,10.19,10.19,0,0,1-4,4,11.92,11.92,0,0,1-5.83,1.42,9,9,0,0,1-7.13-3V322h-5.22V291.6h5v2.92a8,8,0,0,1,3.19-2.38,10.75,10.75,0,0,1,4.19-.79,11.82,11.82,0,0,1,5.83,1.42m-1.67,15a7.82,7.82,0,0,0,0-10.1,6.31,6.31,0,0,0-4.74-1.92,6.72,6.72,0,0,0-3.38.86,6.21,6.21,0,0,0-2.38,2.44,8.09,8.09,0,0,0,0,7.34,6.21,6.21,0,0,0,2.38,2.44,6.61,6.61,0,0,0,3.38.86,6.31,6.31,0,0,0,4.74-1.92" transform="translate(-291.64 -246.71)"/><rect class="cls-1" x="22.33" y="33.6" width="11.27" height="11.27"/><rect class="cls-1" x="33.6" y="22.33" width="11.27" height="11.27"/><rect class="cls-1" x="48.13" y="11.55" width="7.51" height="7.51"/><rect class="cls-1" x="62.18" width="5.01" height="5.01"/><rect class="cls-1" y="62.18" width="5.01" height="5.01"/><rect class="cls-1" x="11.54" y="48.13" width="7.51" height="7.51"/><path class="cls-1" d="M376,342.17a3.66,3.66,0,0,0,1.36-1.4,4.6,4.6,0,0,0,0-4.13,3.57,3.57,0,0,0-1.36-1.39,4.07,4.07,0,0,0-3.87,0,3.44,3.44,0,0,0-1.36,1.39,4.6,4.6,0,0,0,0,4.13,3.52,3.52,0,0,0,1.36,1.4,4,4,0,0,0,3.87,0m1.15-8.47a5.16,5.16,0,0,1,2,2,6.51,6.51,0,0,1,0,6,5.15,5.15,0,0,1-2,2,5.88,5.88,0,0,1-2.92.72,5.23,5.23,0,0,1-2.29-.49,4.39,4.39,0,0,1-1.72-1.42v1.78h-1.95V328.59h2v6.19a4.37,4.37,0,0,1,1.69-1.35,5.45,5.45,0,0,1,2.23-.45,5.88,5.88,0,0,1,2.92.72" transform="translate(-291.64 -246.71)"/><path class="cls-1" d="M391.51,333.08l-5.45,12.37a5.55,5.55,0,0,1-1.68,2.41,3.85,3.85,0,0,1-2.33.7,5.11,5.11,0,0,1-1.6-.26,3.37,3.37,0,0,1-1.28-.78L380,346a2.83,2.83,0,0,0,2,.82,2,2,0,0,0,1.25-.39,3.36,3.36,0,0,0,.9-1.35l.36-.78-5-11.22h2.12l3.93,9,3.88-9Z" transform="translate(-291.64 -246.71)"/><path class="cls-1" d="M406.48,338.92l-3.2-7.28-3.2,7.28Zm.75,1.69h-7.89l-1.64,3.71h-2.18l6.72-14.84h2.1l6.74,14.84h-2.22Z" transform="translate(-291.64 -246.71)"/><path class="cls-1" d="M414.21,335.59a3.59,3.59,0,0,0-1.15,2.33h7.21a3.63,3.63,0,0,0-1.16-2.32,3.8,3.8,0,0,0-4.9,0m8,3.79h-9.11a3.51,3.51,0,0,0,1.3,2.39,4.25,4.25,0,0,0,2.77.9,4.15,4.15,0,0,0,3.24-1.36l1.13,1.32a5,5,0,0,1-1.9,1.35,6.46,6.46,0,0,1-2.54.47,6.64,6.64,0,0,1-3.16-.73,5.26,5.26,0,0,1-2.13-2.05,6.27,6.27,0,0,1,0-5.91,5.24,5.24,0,0,1,2-2.05,5.7,5.7,0,0,1,2.89-.73,5.6,5.6,0,0,1,2.87.73,5.21,5.21,0,0,1,2,2.05,6.25,6.25,0,0,1,.71,3,5.66,5.66,0,0,1-.05.61" transform="translate(-291.64 -246.71)"/><path class="cls-1" d="M427.73,333.49a5.66,5.66,0,0,1,2.52-.51v2l-.46,0a3.44,3.44,0,0,0-2.6,1,3.91,3.91,0,0,0-.94,2.81v5.6h-2V333.08h2V335a3.47,3.47,0,0,1,1.57-1.48" transform="translate(-291.64 -246.71)"/><path class="cls-1" d="M438.58,342.17a3.48,3.48,0,0,0,1.34-1.4,4.6,4.6,0,0,0,0-4.13,3.39,3.39,0,0,0-1.34-1.39,4.11,4.11,0,0,0-3.89,0,3.48,3.48,0,0,0-1.35,1.39,4.51,4.51,0,0,0,0,4.13,3.57,3.57,0,0,0,1.35,1.4,4,4,0,0,0,3.89,0m-5,1.54a5.49,5.49,0,0,1-2.09-2,6.2,6.2,0,0,1,0-5.91,5.39,5.39,0,0,1,2.09-2,6.19,6.19,0,0,1,3-.73,6.11,6.11,0,0,1,3,.73,5.34,5.34,0,0,1,2.07,2,6.12,6.12,0,0,1,0,5.91,5.43,5.43,0,0,1-2.07,2,6.12,6.12,0,0,1-3,.74,6.2,6.2,0,0,1-3-.74" transform="translate(-291.64 -246.71)"/><path class="cls-1" d="M461.88,334.21a4.89,4.89,0,0,1,1.24,3.64v6.47h-2v-6.23a3.55,3.55,0,0,0-.76-2.46,2.77,2.77,0,0,0-2.15-.83,3.21,3.21,0,0,0-2.46,1,3.85,3.85,0,0,0-.91,2.76v5.79h-2v-6.23a3.55,3.55,0,0,0-.75-2.46,2.77,2.77,0,0,0-2.15-.83,3.19,3.19,0,0,0-2.46,1,3.85,3.85,0,0,0-.91,2.76v5.79h-2V333.08h2v1.68a4,4,0,0,1,1.61-1.33,5.48,5.48,0,0,1,2.27-.45,4.85,4.85,0,0,1,2.33.53,3.62,3.62,0,0,1,1.57,1.55,4.41,4.41,0,0,1,1.77-1.53,5.76,5.76,0,0,1,2.56-.55,4.57,4.57,0,0,1,3.36,1.23" transform="translate(-291.64 -246.71)"/><path class="cls-1" d="M468.26,335.59a3.59,3.59,0,0,0-1.15,2.33h7.21a3.63,3.63,0,0,0-1.16-2.32,3.8,3.8,0,0,0-4.9,0m8,3.79h-9.12a3.51,3.51,0,0,0,1.3,2.39,4.29,4.29,0,0,0,2.77.9,4.15,4.15,0,0,0,3.24-1.36l1.13,1.32a4.92,4.92,0,0,1-1.9,1.35,6.46,6.46,0,0,1-2.54.47,6.6,6.6,0,0,1-3.15-.73,5.28,5.28,0,0,1-2.14-2.05,6.27,6.27,0,0,1,0-5.91,5.24,5.24,0,0,1,2-2.05,5.7,5.7,0,0,1,2.89-.73,5.63,5.63,0,0,1,2.88.73,5.18,5.18,0,0,1,2,2.05,6.25,6.25,0,0,1,.71,3c0,.15,0,.36,0,.61" transform="translate(-291.64 -246.71)"/><path class="cls-1" d="M484.58,343.67a3.19,3.19,0,0,1-1.1.58,4.76,4.76,0,0,1-1.36.2,3.59,3.59,0,0,1-2.63-.91,3.5,3.5,0,0,1-.93-2.61v-6.17h-1.91v-1.68h1.91v-2.46h2v2.46h3.23v1.68h-3.23v6.09a2,2,0,0,0,.46,1.4,1.71,1.71,0,0,0,1.3.48,2.39,2.39,0,0,0,1.59-.53Z" transform="translate(-291.64 -246.71)"/><path class="cls-1" d="M489.73,333.49a5.69,5.69,0,0,1,2.52-.51v2l-.46,0a3.46,3.46,0,0,0-2.6,1,3.91,3.91,0,0,0-.94,2.81v5.6h-2V333.08h2V335a3.52,3.52,0,0,1,1.57-1.48" transform="translate(-291.64 -246.71)"/><path class="cls-1" d="M496,335.59a3.56,3.56,0,0,0-1.16,2.33H502a3.61,3.61,0,0,0-1.15-2.32,3.51,3.51,0,0,0-2.45-.9,3.47,3.47,0,0,0-2.45.89m8,3.79h-9.12a3.52,3.52,0,0,0,1.31,2.39,4.24,4.24,0,0,0,2.76.9,4.16,4.16,0,0,0,3.25-1.36l1.12,1.32a4.92,4.92,0,0,1-1.9,1.35,6.41,6.41,0,0,1-2.53.47,6.61,6.61,0,0,1-3.16-.73,5.2,5.2,0,0,1-2.13-2.05,6.27,6.27,0,0,1,0-5.91,5.28,5.28,0,0,1,2-2.05,5.73,5.73,0,0,1,2.9-.73,5.6,5.6,0,0,1,2.87.73,5.12,5.12,0,0,1,2,2.05,6.14,6.14,0,0,1,.71,3,5.25,5.25,0,0,1,0,.61" transform="translate(-291.64 -246.71)"/><polygon class="cls-1" points="221.18 97.61 217.93 93.31 214.65 97.61 212.38 97.61 216.81 91.86 212.59 86.37 214.86 86.37 217.96 90.42 221.03 86.37 223.26 86.37 219.02 91.86 223.49 97.61 221.18 97.61"/></svg>